# xmcd
#
# Track frame offsets: 
#        150
#        16707
#        33312
#        43791
#        57277
#        68851
#        81079
#        92575
#        104642
#        115124
#        127818
#        145800
#        157314
#        175888
#        194264
#        232214
#
# Disc length: 3255 seconds
#
# Revision: 0
# Processed by: cddbd v1.5.1PL0 Copyright (c) Steve Scherf et al.
# Submitted via: ExactAudioCopy v0.95a5
#
DISCID=d90cb510
DTITLE=Johnny Cash - 16 Greatest Hits
DYEAR=1999
DGENRE=Country
TTITLE0=(Ghost) Riders In The Sky
TTITLE1=A Boy Named Sue
TTITLE2=Daddy Sang Bass
TTITLE3=Don't Take Your Guns To Town
TTITLE4=Flesh and Blood
TTITLE5=Folsom Prison Blues
TTITLE6=In the Jailhouse Now
TTITLE7=I Still Miss Someone
TTITLE8=I Walk the Line
TTITLE9=Man in Black
TTITLE10=One Piece at a Time
TTITLE11=Ring of Fire
TTITLE12=Sunday Morning Coming Down
TTITLE13=The Ballad of Ira Hayes
TTITLE14=The Legend of John Henry's Hammer
TTITLE15=Understand Your Man
EXTD=
EXTT0=
EXTT1=
EXTT2=
EXTT3=
EXTT4=
EXTT5=
EXTT6=
EXTT7=
EXTT8=
EXTT9=
EXTT10=
EXTT11=
EXTT12=
EXTT13=
EXTT14=
EXTT15=
PLAYORDER=
